<?xml version="1.0" encoding="utf-8"?>
<!-- Generator: Adobe Illustrator 24.0.1, SVG Export Plug-In . SVG Version: 6.00 Build 0)  -->
<svg version="1.1" id="Layer_1" xmlns="http://www.w3.org/2000/svg" xmlns:xlink="http://www.w3.org/1999/xlink" x="0px" y="0px" viewBox="0 0 372 91" style="enable-background:new 0 0 372 91;" xml:space="preserve">
<style type="text/css">
	.st0{fill:#E1251B;}
</style>
<g>
	<path class="st0" d="M48,12.6c-8.1,5.5-14.2,3.6-22.5,1.8C12.9,11.7,2,12.8-0.3,30.3c5.9-3.9,12.7-4.4,15.9-3.4
		c-4.4,6.6-7.1,10.8-3.5,24.3c1,3.8,2.6,8.8-2.1,14.6c8.2,0.5,19.6-3,16.9-20.2c2.4-2.1,5.9-1.4,8,0.4l4.3-9.6
		c-4.4-3.6-9.3-2.5-13.8,1.4c-1.4-3.7-1.7-7.7,0.7-10.1C37.7,29.2,48.1,26.3,48,12.6z M65.6,35.7c0.1-7.5-0.1-10-4.1-13.2L47,27.6
		c4.5,2.8,4,5,3.9,13.4c-0.1,8.6-0.6,11.9,5.2,15l13.7-4.8C64.4,48.4,65.5,43.2,65.6,35.7z M91.6,27.9c-0.5-2.2-1.5-3.7-3.7-5.4
		l-13.9,5.1c4.5,2.8,4,5,3.9,13.4c-0.1,8.6-0.6,11.9,5.2,15l13.1-4.8c-5.8-2.1-4.4-8.3-4.2-15.1l3.1-1.1l4.4,6.5l11-6.3l-7.4-12.4
		L91.6,27.9z M141.2,22.9c-6.3-0.1-23.5,2.2-26.3,13.6c-3.2,13,10.6,24.8,30.5,18.2l5.9-9.8c-3.7,2.4-14.6,4.9-18.1,0.3l19.1-8.7
		L141.2,22.9z M128.8,40.5c-1.9-4.1-0.6-8.3,2.9-9.3l4.7,5.7L128.8,40.5z M191.2,40.9l-12-7.4c-3-2.2-0.4-4.5,1.6-3.2l9.2,5.3
		l4.1-3.7l-16.7-9.3l-14.9,8.8c-2.5,1.5-6.2,3.8,0.5,8l12.6,7.7c3.1,2.4,0.6,4.9-1.9,3.3l-10-6l-4.3,3.9l17,9.7l15.5-8.5
		C195,47.6,196.7,43.9,191.2,40.9z M218.3,16.1L196.7,32h7.3v15.6c0.2,4.1,1,6.5,4.7,8.6l14.4-5.3c-3.4-1.8-4.9-2.9-4.9-6.9V32h8.2
		v-7.9h-8.2V16.1z M252.1,22.4c-18.9,5.2-21.4,10.9-20.4,18.2c1.2,8.9,9.1,13.7,21.5,16.1c14.1-5.2,18.6-8.9,18.1-18.8
		C270.9,29.2,259.3,24.9,252.1,22.4z M255.1,47.7c-6.5-0.8-11-11.4-6.6-17.5C256.8,33.4,258.1,43.3,255.1,47.7z M318.1,45.9V34.7
		l-0.1-0.2c0-6.3-4.7-13.1-11.7-10.1l-11.3,4.1c-0.5-2.2-1.2-3.6-3.3-5.3l-13.9,5.1c4.5,2.8,4.2,5,4.1,13.4
		c-0.1,8.6-0.7,11.9,4.1,14.9l13.4-4.7c-2.1-1.3-3.5-2-3.5-5.6V34.6l4.9-1.5c1.6,0.7,3.3,2.3,3.3,6.3v9.5c0,3.5,1.1,5.6,4.7,7.8
		l13.5-4.9C319.3,50.7,318.1,49.2,318.1,45.9z M347.4,45.4l19.1-8.7l-11.1-13.6c-6.3-0.1-23.5,2.2-26.3,13.6
		c-3.2,13,10.6,24.8,30.5,18.2l5.9-9.8C361.8,47.5,350.9,50,347.4,45.4z M345.9,31.4l4.7,5.7l-7.7,3.6
		C341.1,36.7,342.4,32.4,345.9,31.4z"/>
	<g>
		<path class="st0" d="M95.4,66.3h2.7l4.1,8.8h0l1.5-8.8h2.1l-2.1,11.8h-2.6L97,69.1h0l-1.6,9.1h-2.1L95.4,66.3z"/>
		<path class="st0" d="M107.8,72.3c0.2-0.9,0.5-1.8,0.9-2.6c0.4-0.8,1-1.4,1.6-2c0.6-0.5,1.4-1,2.2-1.3c0.8-0.3,1.7-0.4,2.6-0.4
			c0.9,0,1.7,0.1,2.4,0.4c0.7,0.3,1.3,0.7,1.7,1.2c0.5,0.5,0.8,1.2,0.9,2c0.2,0.8,0.2,1.6,0,2.6c-0.2,0.9-0.5,1.8-0.9,2.5
			c-0.4,0.8-1,1.4-1.6,2c-0.6,0.5-1.4,1-2.2,1.3c-0.8,0.3-1.7,0.5-2.6,0.5c-0.9,0-1.7-0.1-2.4-0.4c-0.7-0.3-1.3-0.7-1.7-1.3
			c-0.4-0.5-0.8-1.2-0.9-1.9C107.6,74,107.6,73.2,107.8,72.3z M110,72.1c-0.1,0.6-0.1,1.2,0,1.8c0.1,0.5,0.3,1,0.6,1.4
			c0.3,0.4,0.6,0.7,1.1,0.9c0.4,0.2,1,0.3,1.6,0.3c0.6,0,1.2-0.1,1.7-0.3c0.5-0.2,1-0.5,1.4-0.9c0.4-0.4,0.8-0.9,1.1-1.4
			c0.3-0.5,0.5-1.1,0.6-1.8c0.1-0.6,0.1-1.1,0-1.7c-0.1-0.5-0.3-1-0.6-1.3c-0.3-0.4-0.7-0.7-1.1-0.9c-0.5-0.2-1-0.3-1.6-0.3
			s-1.2,0.1-1.7,0.3c-0.5,0.2-1,0.5-1.4,0.9c-0.4,0.4-0.8,0.8-1,1.3C110.3,71,110.1,71.5,110,72.1z"/>
		<path class="st0" d="M124.1,66.3h4.5c0.4,0,0.9,0.1,1.3,0.2c0.4,0.1,0.8,0.3,1.1,0.5c0.3,0.2,0.5,0.5,0.6,0.9
			c0.1,0.4,0.2,0.8,0.1,1.4c-0.1,0.7-0.4,1.2-0.9,1.7c-0.4,0.4-1,0.7-1.6,0.9l0,0c0.4,0,0.7,0.1,1,0.3c0.3,0.2,0.5,0.4,0.7,0.6
			c0.2,0.2,0.3,0.5,0.4,0.9c0.1,0.3,0.1,0.7,0,1.1c-0.1,0.6-0.3,1.2-0.7,1.6c-0.3,0.4-0.7,0.8-1.2,1c-0.5,0.3-1,0.4-1.5,0.6
			c-0.6,0.1-1.1,0.2-1.6,0.2H122L124.1,66.3z M124.4,76.3h1.9c0.3,0,0.5,0,0.9,0c0.3,0,0.6-0.1,0.9-0.2c0.3-0.1,0.5-0.3,0.7-0.5
			s0.3-0.5,0.4-0.9c0.1-0.6,0-1.1-0.4-1.3c-0.4-0.2-1-0.4-1.8-0.4h-2L124.4,76.3z M125.4,71.1h1.9c0.7,0,1.2-0.1,1.6-0.4
			c0.4-0.3,0.6-0.6,0.7-1.1c0.1-0.5,0-0.9-0.3-1.1c-0.3-0.2-0.9-0.4-1.7-0.4h-1.7L125.4,71.1z"/>
		<path class="st0" d="M134.1,72.3c0.2-0.9,0.5-1.8,0.9-2.6c0.4-0.8,1-1.4,1.6-2c0.6-0.5,1.4-1,2.2-1.3c0.8-0.3,1.7-0.4,2.6-0.4
			c0.9,0,1.7,0.1,2.4,0.4c0.7,0.3,1.3,0.7,1.7,1.2c0.5,0.5,0.8,1.2,0.9,2c0.2,0.8,0.2,1.6,0,2.6c-0.2,0.9-0.5,1.8-0.9,2.5
			c-0.4,0.8-1,1.4-1.6,2c-0.6,0.5-1.4,1-2.2,1.3c-0.8,0.3-1.7,0.5-2.6,0.5c-0.9,0-1.7-0.1-2.4-0.4c-0.7-0.3-1.3-0.7-1.7-1.3
			c-0.4-0.5-0.8-1.2-0.9-1.9C133.9,74,133.9,73.2,134.1,72.3z M136.3,72.1c-0.1,0.6-0.1,1.2,0,1.8c0.1,0.5,0.3,1,0.6,1.4
			c0.3,0.4,0.6,0.7,1.1,0.9c0.4,0.2,1,0.3,1.6,0.3c0.6,0,1.2-0.1,1.7-0.3c0.5-0.2,1-0.5,1.4-0.9c0.4-0.4,0.8-0.9,1.1-1.4
			c0.3-0.5,0.5-1.1,0.6-1.8c0.1-0.6,0.1-1.1,0-1.7c-0.1-0.5-0.3-1-0.6-1.3c-0.3-0.4-0.7-0.7-1.1-0.9c-0.5-0.2-1-0.3-1.6-0.3
			s-1.2,0.1-1.7,0.3c-0.5,0.2-1,0.5-1.4,0.9c-0.4,0.4-0.8,0.8-1,1.3C136.6,71,136.4,71.5,136.3,72.1z"/>
		<path class="st0" d="M150.4,66.3h4.6c0.8,0,1.5,0.1,2.2,0.4c0.7,0.2,1.2,0.6,1.7,1.1c0.5,0.5,0.8,1.1,1,1.8c0.2,0.7,0.2,1.6,0,2.6
			c-0.2,1-0.5,1.9-1,2.6c-0.5,0.7-1.1,1.4-1.8,1.8c-0.7,0.5-1.4,0.8-2.2,1.1c-0.8,0.2-1.5,0.4-2.2,0.4h-4.3L150.4,66.3z M152.3,76.2
			c0.6,0,1.3-0.1,1.9-0.2c0.6-0.1,1.1-0.4,1.6-0.7c0.5-0.3,0.9-0.7,1.2-1.2c0.3-0.5,0.6-1.1,0.7-1.8c0.1-0.7,0.1-1.3,0-1.8
			c-0.1-0.5-0.4-0.9-0.7-1.2s-0.8-0.6-1.3-0.7c-0.5-0.1-1.1-0.2-1.7-0.2h-1.9l-1.4,8H152.3z"/>
		<path class="st0" d="M165.5,73.1l-3.2-6.8h2.6l2,4.7l3.7-4.7h2.5l-5.6,6.8l-0.9,5.1h-2.1L165.5,73.1z"/>
		<path class="st0" d="M188.6,69.1c-0.3-0.5-0.7-0.8-1.1-0.9c-0.4-0.2-0.8-0.2-1.2-0.2c-0.6,0-1.2,0.1-1.7,0.3
			c-0.5,0.2-1,0.5-1.4,0.9c-0.4,0.4-0.8,0.8-1,1.3c-0.3,0.5-0.5,1.1-0.6,1.7c-0.1,0.6-0.1,1.2,0,1.8c0.1,0.5,0.3,1,0.6,1.4
			c0.3,0.4,0.6,0.7,1.1,0.9c0.4,0.2,1,0.3,1.6,0.3c0.5,0,0.9-0.1,1.4-0.3s1-0.6,1.4-1.1l1.5,1.2c-0.7,0.7-1.4,1.3-2.2,1.6
			c-0.8,0.3-1.7,0.5-2.5,0.5c-0.9,0-1.7-0.1-2.4-0.4c-0.7-0.3-1.3-0.7-1.7-1.3c-0.4-0.5-0.8-1.2-0.9-1.9c-0.2-0.8-0.2-1.6,0-2.5
			c0.2-0.9,0.5-1.8,0.9-2.6c0.4-0.8,1-1.4,1.6-2c0.6-0.5,1.4-1,2.2-1.3c0.8-0.3,1.7-0.4,2.6-0.4c0.8,0,1.5,0.1,2.1,0.4
			c0.6,0.3,1.2,0.8,1.6,1.4L188.6,69.1z"/>
		<path class="st0" d="M191.6,72.3c0.2-0.9,0.5-1.8,0.9-2.6c0.4-0.8,1-1.4,1.6-2c0.6-0.5,1.4-1,2.2-1.3c0.8-0.3,1.7-0.4,2.6-0.4
			c0.9,0,1.7,0.1,2.4,0.4c0.7,0.3,1.3,0.7,1.7,1.2c0.5,0.5,0.8,1.2,0.9,2c0.2,0.8,0.2,1.6,0,2.6c-0.2,0.9-0.5,1.8-0.9,2.5
			c-0.4,0.8-1,1.4-1.6,2c-0.6,0.5-1.4,1-2.2,1.3c-0.8,0.3-1.7,0.5-2.6,0.5c-0.9,0-1.7-0.1-2.4-0.4c-0.7-0.3-1.3-0.7-1.7-1.3
			c-0.4-0.5-0.8-1.2-0.9-1.9C191.5,74,191.5,73.2,191.6,72.3z M193.8,72.1c-0.1,0.6-0.1,1.2,0,1.8c0.1,0.5,0.3,1,0.6,1.4
			c0.3,0.4,0.6,0.7,1.1,0.9c0.4,0.2,1,0.3,1.6,0.3c0.6,0,1.2-0.1,1.7-0.3c0.5-0.2,1-0.5,1.4-0.9c0.4-0.4,0.8-0.9,1.1-1.4
			c0.3-0.5,0.5-1.1,0.6-1.8c0.1-0.6,0.1-1.1,0-1.7c-0.1-0.5-0.3-1-0.6-1.3c-0.3-0.4-0.7-0.7-1.1-0.9s-1-0.3-1.6-0.3
			c-0.6,0-1.2,0.1-1.7,0.3c-0.5,0.2-1,0.5-1.4,0.9c-0.4,0.4-0.8,0.8-1,1.3C194.1,71,193.9,71.5,193.8,72.1z"/>
		<path class="st0" d="M206.7,66.3h2.4l1.6,8.9l4.8-8.9h2.2l-6.8,11.8h-1.8L206.7,66.3z"/>
		<path class="st0" d="M219.9,66.3h7.7l-0.3,1.9h-5.6l-0.5,2.9h5.3l-0.3,1.9h-5.3l-0.6,3.2h5.9l-0.3,1.9h-8L219.9,66.3z"/>
		<path class="st0" d="M231,66.3h4c0.6,0,1.1,0.1,1.6,0.2c0.5,0.1,0.9,0.3,1.3,0.5c0.4,0.3,0.6,0.6,0.8,1c0.2,0.4,0.2,1,0.1,1.7
			c-0.2,0.9-0.5,1.6-1.1,2.2c-0.6,0.6-1.3,0.9-2.2,1.1l2.2,5.2h-2.5l-1.8-5h-1.5l-0.9,5h-2.1L231,66.3z M233.8,71.3
			c0.3,0,0.6,0,0.9,0c0.3,0,0.6-0.1,0.8-0.2c0.3-0.1,0.5-0.3,0.7-0.5c0.2-0.2,0.3-0.5,0.4-0.9c0.1-0.3,0-0.6-0.1-0.8
			c-0.1-0.2-0.3-0.4-0.5-0.5c-0.2-0.1-0.5-0.2-0.7-0.2c-0.3,0-0.5,0-0.8,0h-1.8l-0.6,3.2H233.8z"/>
		<path class="st0" d="M247.6,68.8c-0.2-0.3-0.4-0.6-0.8-0.7c-0.3-0.1-0.7-0.2-1.1-0.2c-0.2,0-0.5,0-0.7,0.1
			c-0.2,0.1-0.5,0.1-0.7,0.3c-0.2,0.1-0.4,0.3-0.5,0.5c-0.1,0.2-0.2,0.4-0.3,0.7c-0.1,0.4,0,0.7,0.2,0.9c0.2,0.2,0.5,0.4,0.9,0.6
			c0.4,0.2,0.8,0.3,1.3,0.5c0.5,0.1,0.9,0.3,1.2,0.6c0.4,0.3,0.6,0.6,0.8,1c0.2,0.4,0.2,1,0.1,1.7c-0.1,0.6-0.3,1.2-0.6,1.7
			c-0.3,0.5-0.7,0.9-1.1,1.2c-0.4,0.3-0.9,0.5-1.5,0.7c-0.5,0.2-1.1,0.2-1.7,0.2c-0.7,0-1.4-0.1-2-0.4c-0.6-0.2-1.1-0.7-1.5-1.2
			l1.8-1.5c0.2,0.4,0.5,0.7,0.8,0.9c0.4,0.2,0.8,0.3,1.2,0.3c0.2,0,0.5,0,0.7-0.1c0.3-0.1,0.5-0.2,0.7-0.3c0.2-0.1,0.4-0.3,0.6-0.5
			c0.2-0.2,0.3-0.4,0.3-0.7c0.1-0.4,0-0.8-0.2-1c-0.2-0.2-0.5-0.4-0.9-0.6c-0.4-0.2-0.8-0.3-1.3-0.5c-0.5-0.1-0.9-0.3-1.2-0.6
			c-0.4-0.2-0.6-0.6-0.8-1c-0.2-0.4-0.2-1-0.1-1.7c0.1-0.6,0.3-1.1,0.6-1.6c0.3-0.4,0.7-0.8,1.2-1.1c0.5-0.3,0.9-0.5,1.5-0.7
			c0.5-0.1,1.1-0.2,1.6-0.2c0.6,0,1.2,0.1,1.7,0.3c0.5,0.2,1,0.5,1.4,0.9L247.6,68.8z"/>
		<path class="st0" d="M260.2,73.1l-3.2-6.8h2.6l2,4.7l3.7-4.7h2.5l-5.6,6.8l-0.9,5.1h-2.1L260.2,73.1z"/>
		<path class="st0" d="M268.2,72.3c0.2-0.9,0.5-1.8,0.9-2.6c0.4-0.8,1-1.4,1.6-2c0.6-0.5,1.4-1,2.2-1.3c0.8-0.3,1.7-0.4,2.6-0.4
			c0.9,0,1.7,0.1,2.4,0.4c0.7,0.3,1.3,0.7,1.7,1.2c0.5,0.5,0.8,1.2,0.9,2c0.2,0.8,0.2,1.6,0,2.6c-0.2,0.9-0.5,1.8-0.9,2.5
			c-0.4,0.8-1,1.4-1.6,2c-0.6,0.5-1.4,1-2.2,1.3c-0.8,0.3-1.7,0.5-2.6,0.5c-0.9,0-1.7-0.1-2.4-0.4c-0.7-0.3-1.3-0.7-1.7-1.3
			c-0.4-0.5-0.8-1.2-0.9-1.9C268.1,74,268.1,73.2,268.2,72.3z M270.4,72.1c-0.1,0.6-0.1,1.2,0,1.8c0.1,0.5,0.3,1,0.6,1.4
			c0.3,0.4,0.6,0.7,1.1,0.9c0.4,0.2,1,0.3,1.6,0.3s1.2-0.1,1.7-0.3c0.5-0.2,1-0.5,1.4-0.9c0.4-0.4,0.8-0.9,1.1-1.4
			c0.3-0.5,0.5-1.1,0.6-1.8c0.1-0.6,0.1-1.1,0-1.7c-0.1-0.5-0.3-1-0.6-1.3c-0.3-0.4-0.7-0.7-1.1-0.9c-0.5-0.2-1-0.3-1.6-0.3
			s-1.2,0.1-1.7,0.3c-0.5,0.2-1,0.5-1.4,0.9c-0.4,0.4-0.8,0.8-1,1.3C270.7,71,270.5,71.5,270.4,72.1z"/>
		<path class="st0" d="M292.6,73.8c-0.1,0.7-0.4,1.4-0.7,1.9c-0.3,0.6-0.8,1.1-1.2,1.5c-0.5,0.4-1,0.7-1.6,0.9
			c-0.6,0.2-1.2,0.3-1.9,0.3s-1.3-0.1-1.8-0.3c-0.5-0.2-1-0.5-1.3-0.9c-0.4-0.4-0.6-0.9-0.7-1.5c-0.1-0.6-0.1-1.2,0-1.9l1.3-7.5h2.1
			l-1.3,7.4c-0.1,0.3-0.1,0.6,0,0.9c0,0.3,0.1,0.6,0.3,0.9c0.2,0.3,0.4,0.5,0.7,0.7c0.3,0.2,0.7,0.3,1.2,0.3c0.5,0,0.9-0.1,1.3-0.3
			c0.4-0.2,0.7-0.4,0.9-0.7c0.2-0.3,0.4-0.6,0.6-0.9c0.1-0.3,0.2-0.6,0.3-0.9l1.3-7.4h2.1L292.6,73.8z"/>
		<path class="st0" d="M303.3,66.3h4.5c0.4,0,0.9,0.1,1.3,0.2c0.4,0.1,0.8,0.3,1,0.5c0.3,0.2,0.5,0.5,0.6,0.9s0.2,0.8,0.1,1.4
			c-0.1,0.7-0.4,1.2-0.9,1.7c-0.4,0.4-1,0.7-1.6,0.9l0,0c0.4,0,0.7,0.1,1,0.3c0.3,0.2,0.5,0.4,0.7,0.6c0.2,0.2,0.3,0.5,0.4,0.9
			c0.1,0.3,0.1,0.7,0,1.1c-0.1,0.6-0.3,1.2-0.7,1.6c-0.3,0.4-0.7,0.8-1.2,1c-0.5,0.3-1,0.4-1.5,0.6c-0.6,0.1-1.1,0.2-1.6,0.2h-4.2
			L303.3,66.3z M303.6,76.3h1.9c0.3,0,0.5,0,0.9,0c0.3,0,0.6-0.1,0.9-0.2c0.3-0.1,0.5-0.3,0.7-0.5c0.2-0.2,0.3-0.5,0.4-0.9
			c0.1-0.6,0-1.1-0.4-1.3c-0.4-0.2-1-0.4-1.8-0.4h-2L303.6,76.3z M304.5,71.1h1.9c0.7,0,1.2-0.1,1.6-0.4c0.4-0.3,0.6-0.6,0.7-1.1
			c0.1-0.5,0-0.9-0.3-1.1s-0.9-0.4-1.7-0.4H305L304.5,71.1z"/>
		<path class="st0" d="M314.9,66.3h7.7l-0.3,1.9h-5.6l-0.5,2.9h5.3l-0.3,1.9h-5.3l-0.6,3.2h5.9l-0.3,1.9h-8L314.9,66.3z"/>
		<path class="st0" d="M328,68.2h-3.6l0.3-1.9h9.2l-0.3,1.9h-3.6l-1.7,9.9h-2.1L328,68.2z"/>
		<path class="st0" d="M338.4,68.2h-3.6l0.3-1.9h9.2l-0.3,1.9h-3.6l-1.7,9.9h-2.1L338.4,68.2z"/>
		<path class="st0" d="M346.8,66.3h7.7l-0.3,1.9h-5.6l-0.5,2.9h5.3L353,73h-5.3l-0.6,3.2h5.9l-0.3,1.9h-8L346.8,66.3z"/>
		<path class="st0" d="M357.8,66.3h4c0.6,0,1.1,0.1,1.6,0.2s0.9,0.3,1.3,0.5c0.4,0.3,0.6,0.6,0.8,1c0.2,0.4,0.2,1,0.1,1.7
			c-0.2,0.9-0.5,1.6-1.1,2.2c-0.6,0.6-1.3,0.9-2.2,1.1l2.2,5.2H362l-1.8-5h-1.5l-0.9,5h-2.1L357.8,66.3z M360.6,71.3
			c0.3,0,0.6,0,0.9,0c0.3,0,0.6-0.1,0.8-0.2c0.3-0.1,0.5-0.3,0.7-0.5c0.2-0.2,0.3-0.5,0.4-0.9c0.1-0.3,0-0.6-0.1-0.8
			c-0.1-0.2-0.3-0.4-0.5-0.5c-0.2-0.1-0.5-0.2-0.7-0.2c-0.3,0-0.5,0-0.8,0h-1.8l-0.6,3.2H360.6z"/>
	</g>
	<g>
		<path class="st0" d="M367.7,66.7H367v-0.4h1.8v0.4h-0.7v2h-0.4V66.7z"/>
		<path class="st0" d="M369.2,66.3h0.6l0.6,1.7l0.6-1.7h0.6v2.4h-0.4v-2h0l-0.7,2h-0.3l-0.7-2h0v2h-0.4V66.3z"/>
	</g>
</g>
</svg>
